M48
; DRILL file {KiCad 9.0.7} date 2026-01-18T12:07:58+0100
; FORMAT={-:-/ absolute / metric / decimal}
; #@! TF.CreationDate,2026-01-18T12:07:58+01:00
; #@! TF.GenerationSoftware,Kicad,Pcbnew,9.0.7
; #@! TF.FileFunction,Plated,1,2,PTH
FMAT,2
METRIC
; #@! TA.AperFunction,Plated,PTH,ViaDrill
T1C0.300
; #@! TA.AperFunction,Plated,PTH,ComponentDrill
T2C0.300
; #@! TA.AperFunction,Plated,PTH,ComponentDrill
T3C0.600
; #@! TA.AperFunction,Plated,PTH,ComponentDrill
T4C0.700
; #@! TA.AperFunction,Plated,PTH,ComponentDrill
T5C0.800
; #@! TA.AperFunction,Plated,PTH,ComponentDrill
T6C0.900
; #@! TA.AperFunction,Plated,PTH,ComponentDrill
T7C1.000
; #@! TA.AperFunction,Plated,PTH,ComponentDrill
T8C1.300
; #@! TA.AperFunction,Plated,PTH,ComponentDrill
T9C1.330
%
G90
G05
T1
X98.5Y-134.95
X101.3Y-137.65
X115.0Y-149.25
X115.05Y-151.95
X124.4Y-142.65
X125.35Y-141.35
X127.2Y-141.45
X135.4Y-140.35
X135.6Y-143.65
T2
X99.9Y-83.5
T3
X103.25Y-139.2
X104.75Y-139.2
X108.75Y-139.3
X110.25Y-139.3
X114.45Y-139.45
X115.95Y-139.45
X147.0Y-138.4
X147.0Y-142.0
T4
X129.16Y-138.55
X129.22Y-141.6
X129.22Y-144.6
X129.32Y-147.6
X129.37Y-150.55
X129.41Y-153.65
X134.24Y-138.55
X134.3Y-141.6
X134.3Y-144.6
X134.4Y-147.6
X134.45Y-150.55
X134.49Y-153.65
X137.62Y-138.55
X137.62Y-141.7
X142.7Y-138.55
X142.7Y-141.7
T5
X100.35Y-146.93
X100.35Y-154.55
X104.33Y-146.38
X104.33Y-154.0
X106.87Y-146.38
X106.87Y-154.0
X109.41Y-146.38
X109.41Y-154.0
X111.95Y-146.38
X111.95Y-154.0
T6
X120.81Y-139.5
X120.81Y-146.25
X123.35Y-139.5
X123.35Y-146.25
T7
X58.12Y-138.9
X58.12Y-154.14
X60.66Y-138.9
X60.66Y-154.14
X63.2Y-138.9
X63.2Y-154.14
X65.74Y-138.9
X65.74Y-154.14
X68.28Y-138.9
X68.28Y-154.14
X70.82Y-138.9
X70.82Y-154.14
X73.36Y-138.9
X73.36Y-154.14
X75.9Y-138.9
X75.9Y-154.14
X78.44Y-138.9
X78.44Y-154.14
X80.98Y-138.9
X80.98Y-154.14
X83.52Y-138.9
X83.52Y-154.14
X86.06Y-138.9
X86.06Y-154.14
X88.6Y-138.9
X88.6Y-154.14
X91.14Y-138.9
X91.14Y-154.14
X93.68Y-138.9
X93.68Y-154.14
T8
X118.95Y-153.5
X125.45Y-153.5
T9
X141.45Y-149.3
X141.45Y-151.84
X141.45Y-154.38
M30
