%TF.GenerationSoftware,KiCad,Pcbnew,9.0.7*%
%TF.CreationDate,2026-01-18T12:08:03+01:00*%
%TF.ProjectId,Generator,47656e65-7261-4746-9f72-2e6b69636164,rev?*%
%TF.SameCoordinates,Original*%
%TF.FileFunction,Copper,L2,Bot*%
%TF.FilePolarity,Positive*%
%FSLAX46Y46*%
G04 Gerber Fmt 4.6, Leading zero omitted, Abs format (unit mm)*
G04 Created by KiCad (PCBNEW 9.0.7) date 2026-01-18 12:08:03*
%MOMM*%
%LPD*%
G01*
G04 APERTURE LIST*
G04 Aperture macros list*
%AMRoundRect*
0 Rectangle with rounded corners*
0 $1 Rounding radius*
0 $2 $3 $4 $5 $6 $7 $8 $9 X,Y pos of 4 corners*
0 Add a 4 corners polygon primitive as box body*
4,1,4,$2,$3,$4,$5,$6,$7,$8,$9,$2,$3,0*
0 Add four circle primitives for the rounded corners*
1,1,$1+$1,$2,$3*
1,1,$1+$1,$4,$5*
1,1,$1+$1,$6,$7*
1,1,$1+$1,$8,$9*
0 Add four rect primitives between the rounded corners*
20,1,$1+$1,$2,$3,$4,$5,0*
20,1,$1+$1,$4,$5,$6,$7,0*
20,1,$1+$1,$6,$7,$8,$9,0*
20,1,$1+$1,$8,$9,$2,$3,0*%
G04 Aperture macros list end*
%TA.AperFunction,EtchedComponent*%
%ADD10C,0.600000*%
%TD*%
%TA.AperFunction,ComponentPad*%
%ADD11C,0.600000*%
%TD*%
%TA.AperFunction,SMDPad,CuDef*%
%ADD12RoundRect,0.150000X-0.150000X2.250000X-0.150000X-2.250000X0.150000X-2.250000X0.150000X2.250000X0*%
%TD*%
%TA.AperFunction,ComponentPad*%
%ADD13RoundRect,0.250000X-0.550000X0.550000X-0.550000X-0.550000X0.550000X-0.550000X0.550000X0.550000X0*%
%TD*%
%TA.AperFunction,ComponentPad*%
%ADD14C,1.600000*%
%TD*%
%TA.AperFunction,ComponentPad*%
%ADD15R,1.600000X1.600000*%
%TD*%
%TA.AperFunction,ComponentPad*%
%ADD16O,1.600000X1.600000*%
%TD*%
%TA.AperFunction,ComponentPad*%
%ADD17C,1.400000*%
%TD*%
%TA.AperFunction,ComponentPad*%
%ADD18R,1.800000X1.800000*%
%TD*%
%TA.AperFunction,ComponentPad*%
%ADD19C,1.800000*%
%TD*%
%TA.AperFunction,ComponentPad*%
%ADD20RoundRect,0.250000X-0.350000X-0.350000X0.350000X-0.350000X0.350000X0.350000X-0.350000X0.350000X0*%
%TD*%
%TA.AperFunction,ComponentPad*%
%ADD21C,1.200000*%
%TD*%
%TA.AperFunction,ComponentPad*%
%ADD22RoundRect,0.250000X0.550000X-0.550000X0.550000X0.550000X-0.550000X0.550000X-0.550000X-0.550000X0*%
%TD*%
%TA.AperFunction,ComponentPad*%
%ADD23R,2.250000X2.250000*%
%TD*%
%TA.AperFunction,ComponentPad*%
%ADD24C,2.250000*%
%TD*%
%TA.AperFunction,ComponentPad*%
%ADD25R,1.995000X1.995000*%
%TD*%
%TA.AperFunction,ComponentPad*%
%ADD26C,1.995000*%
%TD*%
%TA.AperFunction,ViaPad*%
%ADD27C,0.600000*%
%TD*%
%TA.AperFunction,Conductor*%
%ADD28C,0.200000*%
%TD*%
G04 APERTURE END LIST*
D10*
%TO.C,L1*%
X98500000Y-128900000D02*
X98500000Y-130000000D01*
X99900000Y-84900000D02*
X99900000Y-83500000D01*
X99900000Y-128900000D02*
X98500000Y-128900000D01*
X99900000Y-34300000D02*
G75*
G02*
X99900000Y-128900000I0J-47300000D01*
G01*
X99900000Y-35100000D02*
G75*
G02*
X99900000Y-128100000I0J-46500000D01*
G01*
X99900000Y-35900000D02*
G75*
G02*
X99900000Y-127300000I0J-45700000D01*
G01*
X99900000Y-36700000D02*
G75*
G02*
X99900000Y-126500000I0J-44900000D01*
G01*
X99900000Y-37500000D02*
G75*
G02*
X99900000Y-125700000I0J-44100000D01*
G01*
X99900000Y-38300000D02*
G75*
G02*
X99900000Y-124900000I0J-43300000D01*
G01*
X99900000Y-39100000D02*
G75*
G02*
X99900000Y-124100000I0J-42500000D01*
G01*
X99900000Y-39900000D02*
G75*
G02*
X99900000Y-123300000I0J-41700000D01*
G01*
X99900000Y-40700000D02*
G75*
G02*
X99900000Y-122500000I0J-40900000D01*
G01*
X99900000Y-41500000D02*
G75*
G02*
X99900000Y-121700000I0J-40100000D01*
G01*
X99900000Y-42300000D02*
G75*
G02*
X99900000Y-120900000I0J-39300000D01*
G01*
X99900000Y-43100000D02*
G75*
G02*
X99900000Y-120100000I0J-38500000D01*
G01*
X99900000Y-43900000D02*
G75*
G02*
X99900000Y-119300000I0J-37700000D01*
G01*
X99900000Y-44700000D02*
G75*
G02*
X99900000Y-118500000I0J-36900000D01*
G01*
X99900000Y-45500000D02*
G75*
G02*
X99900000Y-117700000I0J-36100000D01*
G01*
X99900000Y-46300000D02*
G75*
G02*
X99900000Y-116900000I0J-35300000D01*
G01*
X99900000Y-47100000D02*
G75*
G02*
X99900000Y-116100000I0J-34500000D01*
G01*
X99900000Y-47900000D02*
G75*
G02*
X99900000Y-115300000I0J-33700000D01*
G01*
X99900000Y-48700000D02*
G75*
G02*
X99900000Y-114500000I0J-32900000D01*
G01*
X99900000Y-49500000D02*
G75*
G02*
X99900000Y-113700000I0J-32100000D01*
G01*
X99900000Y-50300000D02*
G75*
G02*
X99900000Y-112900000I0J-31300000D01*
G01*
X99900000Y-51100000D02*
G75*
G02*
X99900000Y-112100000I0J-30500000D01*
G01*
X99900000Y-51900000D02*
G75*
G02*
X99900000Y-111300000I0J-29700000D01*
G01*
X99900000Y-52700000D02*
G75*
G02*
X99900000Y-110500000I0J-28900000D01*
G01*
X99900000Y-53500000D02*
G75*
G02*
X99900000Y-109700000I0J-28100000D01*
G01*
X99900000Y-54300000D02*
G75*
G02*
X99900000Y-108900000I0J-27300000D01*
G01*
X99900000Y-55100000D02*
G75*
G02*
X99900000Y-108100000I0J-26500000D01*
G01*
X99900000Y-55900000D02*
G75*
G02*
X99900000Y-107300000I0J-25700000D01*
G01*
X99900000Y-56700000D02*
G75*
G02*
X99900000Y-106500000I0J-24900000D01*
G01*
X99900000Y-57500000D02*
G75*
G02*
X99900000Y-105700000I0J-24100000D01*
G01*
X99900000Y-58300000D02*
G75*
G02*
X99900000Y-104900000I0J-23300000D01*
G01*
X99900000Y-59100000D02*
G75*
G02*
X99900000Y-104100000I0J-22500000D01*
G01*
X99900000Y-59900000D02*
G75*
G02*
X99900000Y-103300000I0J-21700000D01*
G01*
X99900000Y-60700000D02*
G75*
G02*
X99900000Y-102500000I0J-20900000D01*
G01*
X99900000Y-61500000D02*
G75*
G02*
X99900000Y-101700000I0J-20100000D01*
G01*
X99900000Y-62300000D02*
G75*
G02*
X99900000Y-100900000I0J-19300000D01*
G01*
X99900000Y-63100000D02*
G75*
G02*
X99900000Y-100100000I0J-18500000D01*
G01*
X99900000Y-63900000D02*
G75*
G02*
X99900000Y-99300000I0J-17700000D01*
G01*
X99900000Y-64700000D02*
G75*
G02*
X99900000Y-98500000I0J-16900000D01*
G01*
X99900000Y-65500000D02*
G75*
G02*
X99900000Y-97700000I0J-16100000D01*
G01*
X99900000Y-66300000D02*
G75*
G02*
X99900000Y-96900000I0J-15300000D01*
G01*
X99900000Y-67100000D02*
G75*
G02*
X99900000Y-96100000I0J-14500000D01*
G01*
X99900000Y-67900000D02*
G75*
G02*
X99900000Y-95300000I0J-13700000D01*
G01*
X99900000Y-68700000D02*
G75*
G02*
X99900000Y-94500000I0J-12900000D01*
G01*
X99900000Y-69500000D02*
G75*
G02*
X99900000Y-93700000I0J-12100000D01*
G01*
X99900000Y-70300000D02*
G75*
G02*
X99900000Y-92900000I0J-11300000D01*
G01*
X99900000Y-71100000D02*
G75*
G02*
X99900000Y-92100000I0J-10500000D01*
G01*
X99900000Y-71900000D02*
G75*
G02*
X99900000Y-91300000I0J-9700000D01*
G01*
X99900000Y-72700000D02*
G75*
G02*
X99900000Y-90500000I0J-8900000D01*
G01*
X99900000Y-73500000D02*
G75*
G02*
X99900000Y-89700000I0J-8100000D01*
G01*
X99900000Y-74300000D02*
G75*
G02*
X99900000Y-88900000I0J-7300000D01*
G01*
X99900000Y-75100000D02*
G75*
G02*
X99900000Y-88100000I0J-6500000D01*
G01*
X99900000Y-75900000D02*
G75*
G02*
X99900000Y-87300000I0J-5700000D01*
G01*
X99900000Y-76700000D02*
G75*
G02*
X99900000Y-86500000I0J-4900000D01*
G01*
X99900000Y-77500000D02*
G75*
G02*
X99900000Y-85700000I0J-4100000D01*
G01*
X99900000Y-84900000D02*
G75*
G02*
X99900000Y-77500000I0J3700000D01*
G01*
X99900000Y-85700000D02*
G75*
G02*
X99900000Y-76700000I0J4500000D01*
G01*
X99900000Y-86500000D02*
G75*
G02*
X99900000Y-75900000I0J5300000D01*
G01*
X99900000Y-87300000D02*
G75*
G02*
X99900000Y-75100000I0J6100000D01*
G01*
X99900000Y-88100000D02*
G75*
G02*
X99900000Y-74300000I0J6900000D01*
G01*
X99900000Y-88900000D02*
G75*
G02*
X99900000Y-73500000I0J7700000D01*
G01*
X99900000Y-89700000D02*
G75*
G02*
X99900000Y-72700000I0J8500000D01*
G01*
X99900000Y-90500000D02*
G75*
G02*
X99900000Y-71900000I0J9300000D01*
G01*
X99900000Y-91300000D02*
G75*
G02*
X99900000Y-71100000I0J10100000D01*
G01*
X99900000Y-92100000D02*
G75*
G02*
X99900000Y-70300000I0J10900000D01*
G01*
X99900000Y-92900000D02*
G75*
G02*
X99900000Y-69500000I0J11700000D01*
G01*
X99900000Y-93700000D02*
G75*
G02*
X99900000Y-68700000I0J12500000D01*
G01*
X99900000Y-94500000D02*
G75*
G02*
X99900000Y-67900000I0J13300000D01*
G01*
X99900000Y-95300000D02*
G75*
G02*
X99900000Y-67100000I0J14100000D01*
G01*
X99900000Y-96100000D02*
G75*
G02*
X99900000Y-66300000I0J14900000D01*
G01*
X99900000Y-96900000D02*
G75*
G02*
X99900000Y-65500000I0J15700000D01*
G01*
X99900000Y-97700000D02*
G75*
G02*
X99900000Y-64700000I0J16500000D01*
G01*
X99900000Y-98500000D02*
G75*
G02*
X99900000Y-63900000I0J17300000D01*
G01*
X99900000Y-99300000D02*
G75*
G02*
X99900000Y-63100000I0J18100000D01*
G01*
X99900000Y-100100000D02*
G75*
G02*
X99900000Y-62300000I0J18900000D01*
G01*
X99900000Y-100900000D02*
G75*
G02*
X99900000Y-61500000I0J19700000D01*
G01*
X99900000Y-101700000D02*
G75*
G02*
X99900000Y-60700000I0J20500000D01*
G01*
X99900000Y-102500000D02*
G75*
G02*
X99900000Y-59900000I0J21300000D01*
G01*
X99900000Y-103300000D02*
G75*
G02*
X99900000Y-59100000I0J22100000D01*
G01*
X99900000Y-104100000D02*
G75*
G02*
X99900000Y-58300000I0J22900000D01*
G01*
X99900000Y-104900000D02*
G75*
G02*
X99900000Y-57500000I0J23700000D01*
G01*
X99900000Y-105700000D02*
G75*
G02*
X99900000Y-56700000I0J24500000D01*
G01*
X99900000Y-106500000D02*
G75*
G02*
X99900000Y-55900000I0J25300000D01*
G01*
X99900000Y-107300000D02*
G75*
G02*
X99900000Y-55100000I0J26100000D01*
G01*
X99900000Y-108100000D02*
G75*
G02*
X99900000Y-54300000I0J26900000D01*
G01*
X99900000Y-108900000D02*
G75*
G02*
X99900000Y-53500000I0J27700000D01*
G01*
X99900000Y-109700000D02*
G75*
G02*
X99900000Y-52700000I0J28500000D01*
G01*
X99900000Y-110500000D02*
G75*
G02*
X99900000Y-51900000I0J29300000D01*
G01*
X99900000Y-111300000D02*
G75*
G02*
X99900000Y-51100000I0J30100000D01*
G01*
X99900000Y-112100000D02*
G75*
G02*
X99900000Y-50300000I0J30900000D01*
G01*
X99900000Y-112900000D02*
G75*
G02*
X99900000Y-49500000I0J31700000D01*
G01*
X99900000Y-113700000D02*
G75*
G02*
X99900000Y-48700000I0J32500000D01*
G01*
X99900000Y-114500000D02*
G75*
G02*
X99900000Y-47900000I0J33300000D01*
G01*
X99900000Y-115300000D02*
G75*
G02*
X99900000Y-47100000I0J34100000D01*
G01*
X99900000Y-116100000D02*
G75*
G02*
X99900000Y-46300000I0J34900000D01*
G01*
X99900000Y-116900000D02*
G75*
G02*
X99900000Y-45500000I0J35700000D01*
G01*
X99900000Y-117700000D02*
G75*
G02*
X99900000Y-44700000I0J36500000D01*
G01*
X99900000Y-118500000D02*
G75*
G02*
X99900000Y-43900000I0J37300000D01*
G01*
X99900000Y-119300000D02*
G75*
G02*
X99900000Y-43100000I0J38100000D01*
G01*
X99900000Y-120100000D02*
G75*
G02*
X99900000Y-42300000I0J38900000D01*
G01*
X99900000Y-120900000D02*
G75*
G02*
X99900000Y-41500000I0J39700000D01*
G01*
X99900000Y-121700000D02*
G75*
G02*
X99900000Y-40700000I0J40500000D01*
G01*
X99900000Y-122500000D02*
G75*
G02*
X99900000Y-39900000I0J41300000D01*
G01*
X99900000Y-123300000D02*
G75*
G02*
X99900000Y-39100000I0J42100000D01*
G01*
X99900000Y-124100000D02*
G75*
G02*
X99900000Y-38300000I0J42900000D01*
G01*
X99900000Y-124900000D02*
G75*
G02*
X99900000Y-37500000I0J43700000D01*
G01*
X99900000Y-125700000D02*
G75*
G02*
X99900000Y-36700000I0J44500000D01*
G01*
X99900000Y-126500000D02*
G75*
G02*
X99900000Y-35900000I0J45300000D01*
G01*
X99900000Y-127300000D02*
G75*
G02*
X99900000Y-35100000I0J46100000D01*
G01*
X99900000Y-128100000D02*
G75*
G02*
X99900000Y-34300000I0J46900000D01*
G01*
%TD*%
D11*
%TO.P,L1,0*%
%TO.N,N/C*%
X99900000Y-83500000D03*
D12*
%TO.P,L1,2,2*%
%TO.N,+5V*%
X98500000Y-131800000D03*
%TD*%
D13*
%TO.P,J1,1,Pin_1*%
%TO.N,+5V*%
X147000000Y-138400000D03*
D14*
%TO.P,J1,2,Pin_2*%
%TO.N,GND*%
X147000000Y-142000000D03*
%TD*%
D15*
%TO.P,A1,1,D1/TX*%
%TO.N,unconnected-(A1-D1{slash}TX-Pad1)*%
X93680000Y-138900000D03*
D16*
%TO.P,A1,2,D0/RX*%
%TO.N,unconnected-(A1-D0{slash}RX-Pad2)*%
X91140000Y-138900000D03*
%TO.P,A1,3,~{RESET}*%
%TO.N,unconnected-(A1-~{RESET}-Pad3)*%
X88600000Y-138900000D03*
%TO.P,A1,4,GND*%
%TO.N,unconnected-(A1-GND-Pad4)*%
X86060000Y-138900000D03*
%TO.P,A1,5,D2*%
%TO.N,unconnected-(A1-D2-Pad5)*%
X83520000Y-138900000D03*
%TO.P,A1,6,D3*%
%TO.N,unconnected-(A1-D3-Pad6)*%
X80980000Y-138900000D03*
%TO.P,A1,7,D4*%
%TO.N,Net-(A1-D4)*%
X78440000Y-138900000D03*
%TO.P,A1,8,D5*%
%TO.N,Net-(A1-D5)*%
X75900000Y-138900000D03*
%TO.P,A1,9,D6*%
%TO.N,Net-(A1-D6)*%
X73360000Y-138900000D03*
%TO.P,A1,10,D7*%
%TO.N,unconnected-(A1-D7-Pad10)*%
X70820000Y-138900000D03*
%TO.P,A1,11,D8*%
%TO.N,unconnected-(A1-D8-Pad11)*%
X68280000Y-138900000D03*
%TO.P,A1,12,D9*%
%TO.N,Net-(A1-D9)*%
X65740000Y-138900000D03*
%TO.P,A1,13,D10*%
%TO.N,unconnected-(A1-D10-Pad13)*%
X63200000Y-138900000D03*
%TO.P,A1,14,D11*%
%TO.N,unconnected-(A1-D11-Pad14)*%
X60660000Y-138900000D03*
%TO.P,A1,15,D12*%
%TO.N,unconnected-(A1-D12-Pad15)*%
X58120000Y-138900000D03*
%TO.P,A1,16,D13*%
%TO.N,unconnected-(A1-D13-Pad16)*%
X58120000Y-154140000D03*
%TO.P,A1,17,3V3*%
%TO.N,unconnected-(A1-3V3-Pad17)*%
X60660000Y-154140000D03*
%TO.P,A1,18,AREF*%
%TO.N,unconnected-(A1-AREF-Pad18)*%
X63200000Y-154140000D03*
%TO.P,A1,19,A0*%
%TO.N,unconnected-(A1-A0-Pad19)*%
X65740000Y-154140000D03*
%TO.P,A1,20,A1*%
%TO.N,unconnected-(A1-A1-Pad20)*%
X68280000Y-154140000D03*
%TO.P,A1,21,A2*%
%TO.N,unconnected-(A1-A2-Pad21)*%
X70820000Y-154140000D03*
%TO.P,A1,22,A3*%
%TO.N,unconnected-(A1-A3-Pad22)*%
X73360000Y-154140000D03*
%TO.P,A1,23,A4*%
%TO.N,unconnected-(A1-A4-Pad23)*%
X75900000Y-154140000D03*
%TO.P,A1,24,A5*%
%TO.N,unconnected-(A1-A5-Pad24)*%
X78440000Y-154140000D03*
%TO.P,A1,25,A6*%
%TO.N,unconnected-(A1-A6-Pad25)*%
X80980000Y-154140000D03*
%TO.P,A1,26,A7*%
%TO.N,unconnected-(A1-A7-Pad26)*%
X83520000Y-154140000D03*
%TO.P,A1,27,+5V*%
%TO.N,+5V*%
X86060000Y-154140000D03*
%TO.P,A1,28,~{RESET}*%
%TO.N,unconnected-(A1-~{RESET}-Pad28)*%
X88600000Y-154140000D03*
%TO.P,A1,29,GND*%
%TO.N,GND*%
X91140000Y-154140000D03*
%TO.P,A1,30,VIN*%
%TO.N,unconnected-(A1-VIN-Pad30)*%
X93680000Y-154140000D03*
%TD*%
D17*
%TO.P,R2,1*%
%TO.N,Net-(Q1-Pad2)*%
X134300000Y-141600000D03*
%TO.P,R2,2*%
%TO.N,Net-(D3-A)*%
X129220000Y-141600000D03*
%TD*%
D18*
%TO.P,D2,1,K*%
%TO.N,GND*%
X120810000Y-146250000D03*
D19*
%TO.P,D2,2,A*%
%TO.N,Net-(D2-A)*%
X123350000Y-146250000D03*
%TD*%
D17*
%TO.P,R5,1*%
%TO.N,Net-(D2-A)*%
X129320000Y-147600000D03*
%TO.P,R5,2*%
%TO.N,Net-(A1-D6)*%
X134400000Y-147600000D03*
%TD*%
%TO.P,R8,1*%
%TO.N,Net-(R8-Pad1)*%
X134490000Y-153650000D03*
%TO.P,R8,2*%
%TO.N,Net-(A1-D4)*%
X129410000Y-153650000D03*
%TD*%
%TO.P,R3,1*%
%TO.N,Net-(U1B-+)*%
X142700000Y-141700000D03*
%TO.P,R3,2*%
%TO.N,Net-(C3-Pad1)*%
X137620000Y-141700000D03*
%TD*%
D20*
%TO.P,C1,1*%
%TO.N,Net-(C1-Pad1)*%
X114450000Y-139450000D03*
D21*
%TO.P,C1,2*%
%TO.N,GND*%
X115950000Y-139450000D03*
%TD*%
D17*
%TO.P,R6,1*%
%TO.N,GND*%
X134450000Y-150550000D03*
%TO.P,R6,2*%
%TO.N,Net-(A1-D4)*%
X129370000Y-150550000D03*
%TD*%
%TO.P,R7,1*%
%TO.N,Net-(C3-Pad1)*%
X142700000Y-138550000D03*
%TO.P,R7,2*%
%TO.N,Net-(A1-D9)*%
X137620000Y-138550000D03*
%TD*%
D18*
%TO.P,D1,1,K*%
%TO.N,GND*%
X120810000Y-139500000D03*
D19*
%TO.P,D1,2,A*%
%TO.N,Net-(D1-A)*%
X123350000Y-139500000D03*
%TD*%
D22*
%TO.P,U1,1*%
%TO.N,unconnected-(U1-Pad1)*%
X104330000Y-154000000D03*
D14*
%TO.P,U1,2,-*%
%TO.N,unconnected-(U1A---Pad2)*%
X106870000Y-154000000D03*
%TO.P,U1,3,+*%
%TO.N,unconnected-(U1A-+-Pad3)*%
X109410000Y-154000000D03*
%TO.P,U1,4,V-*%
%TO.N,GND*%
X111950000Y-154000000D03*
%TO.P,U1,5,+*%
%TO.N,Net-(U1B-+)*%
X111950000Y-146380000D03*
%TO.P,U1,6,-*%
%TO.N,Net-(U1B--)*%
X109410000Y-146380000D03*
%TO.P,U1,7*%
X106870000Y-146380000D03*
%TO.P,U1,8,V+*%
%TO.N,+5V*%
X104330000Y-146380000D03*
%TD*%
D20*
%TO.P,C3,1*%
%TO.N,Net-(C3-Pad1)*%
X103250000Y-139200000D03*
D21*
%TO.P,C3,2*%
%TO.N,GND*%
X104750000Y-139200000D03*
%TD*%
D17*
%TO.P,R4,1*%
%TO.N,Net-(D1-A)*%
X129220000Y-144600000D03*
%TO.P,R4,2*%
%TO.N,Net-(A1-D5)*%
X134300000Y-144600000D03*
%TD*%
D23*
%TO.P,SW1,1,1*%
%TO.N,Net-(R8-Pad1)*%
X125450000Y-153500000D03*
D24*
%TO.P,SW1,2,2*%
%TO.N,+5V*%
X118950000Y-153500000D03*
%TD*%
D25*
%TO.P,Q1,1*%
%TO.N,Net-(C1-Pad1)*%
X141450000Y-154380000D03*
D26*
%TO.P,Q1,2*%
%TO.N,Net-(Q1-Pad2)*%
X141450000Y-151840000D03*
%TO.P,Q1,3*%
%TO.N,GND*%
X141450000Y-149300000D03*
%TD*%
D17*
%TO.P,R1,1*%
%TO.N,Net-(C1-Pad1)*%
X134240000Y-138550000D03*
%TO.P,R1,2*%
%TO.N,Net-(U1B--)*%
X129160000Y-138550000D03*
%TD*%
D20*
%TO.P,C2,1*%
%TO.N,Net-(U1B-+)*%
X108750000Y-139300000D03*
D21*
%TO.P,C2,2*%
%TO.N,GND*%
X110250000Y-139300000D03*
%TD*%
D13*
%TO.P,D3,1,A*%
%TO.N,Net-(D3-A)*%
X100350000Y-146930000D03*
D14*
%TO.P,D3,2,K*%
%TO.N,+5V*%
X100350000Y-154550000D03*
%TD*%
D27*
%TO.N,+5V*%
X98500000Y-134950000D03*
%TO.N,Net-(U1B-+)*%
X115050000Y-151950000D03*
X115000000Y-149250000D03*
%TO.N,Net-(C3-Pad1)*%
X127200000Y-141450000D03*
X125350000Y-141350000D03*
X135400000Y-140350000D03*
%TO.N,Net-(D3-A)*%
X101300000Y-137650000D03*
X124400000Y-142650000D03*
%TO.N,Net-(Q1-Pad2)*%
X135600000Y-143650000D03*
%TD*%
D28*
%TO.N,GND*%
X145100000Y-149300000D02*
X141450000Y-149300000D01*
X147000000Y-142000000D02*
X147000000Y-147400000D01*
X147000000Y-147400000D02*
X145100000Y-149300000D01*
%TO.N,+5V*%
X98500000Y-134950000D02*
X98500000Y-131900000D01*
%TO.N,Net-(A1-D6)*%
X75150000Y-151150000D02*
X125300000Y-151150000D01*
X73360000Y-149360000D02*
X75150000Y-151150000D01*
X132950000Y-149050000D02*
X134400000Y-147600000D01*
X73360000Y-138900000D02*
X73360000Y-149360000D01*
X125300000Y-151150000D02*
X127400000Y-149050000D01*
X127400000Y-149050000D02*
X132950000Y-149050000D01*
%TO.N,Net-(A1-D4)*%
X78440000Y-138900000D02*
X78440000Y-137160000D01*
X129700000Y-153200000D02*
X129700000Y-153360000D01*
X130250000Y-151800000D02*
X129350000Y-152700000D01*
X136250000Y-138450000D02*
X136250000Y-151550000D01*
X136000000Y-151800000D02*
X130250000Y-151800000D01*
X134700000Y-136900000D02*
X136250000Y-138450000D01*
X129350000Y-152850000D02*
X129700000Y-153200000D01*
X136250000Y-151550000D02*
X136000000Y-151800000D01*
X129350000Y-152700000D02*
X129350000Y-152850000D01*
X129700000Y-153360000D02*
X129410000Y-153650000D01*
X78700000Y-136900000D02*
X134700000Y-136900000D01*
X78440000Y-137160000D02*
X78700000Y-136900000D01*
%TO.N,Net-(A1-D9)*%
X134450000Y-135700000D02*
X134770000Y-135700000D01*
X65740000Y-138900000D02*
X65740000Y-136310000D01*
X66450000Y-135600000D02*
X134350000Y-135600000D01*
X134770000Y-135700000D02*
X137620000Y-138550000D01*
X134350000Y-135600000D02*
X134450000Y-135700000D01*
X65740000Y-136310000D02*
X66450000Y-135600000D01*
%TO.N,Net-(A1-D5)*%
X132850000Y-146150000D02*
X133000000Y-146000000D01*
X127750000Y-146150000D02*
X132850000Y-146150000D01*
X133000000Y-146000000D02*
X133000000Y-145900000D01*
X77900000Y-150200000D02*
X124550000Y-150200000D01*
X133000000Y-145900000D02*
X134300000Y-144600000D01*
X127350000Y-146550000D02*
X127750000Y-146150000D01*
X124550000Y-150200000D02*
X127350000Y-147400000D01*
X75900000Y-148200000D02*
X77900000Y-150200000D01*
X75900000Y-138900000D02*
X75900000Y-148200000D01*
X127350000Y-147400000D02*
X127350000Y-146550000D01*
%TO.N,Net-(C1-Pad1)*%
X114450000Y-139450000D02*
X116351000Y-137549000D01*
X116351000Y-137549000D02*
X133239000Y-137549000D01*
X133239000Y-137549000D02*
X134240000Y-138550000D01*
%TO.N,Net-(U1B-+)*%
X115000000Y-147450000D02*
X113930000Y-146380000D01*
X137150000Y-155400000D02*
X134950000Y-157600000D01*
X134950000Y-157600000D02*
X118050000Y-157600000D01*
X137150000Y-144850000D02*
X137150000Y-155400000D01*
X115050000Y-154700000D02*
X115050000Y-151950000D01*
X118050000Y-157600000D02*
X117950000Y-157600000D01*
X115900000Y-155550000D02*
X115050000Y-154700000D01*
X137150000Y-144500000D02*
X137150000Y-144850000D01*
X140650000Y-143750000D02*
X137900000Y-143750000D01*
X113930000Y-146380000D02*
X111950000Y-146380000D01*
X117950000Y-157600000D02*
X115900000Y-155550000D01*
X115000000Y-149250000D02*
X115000000Y-147450000D01*
X137900000Y-143750000D02*
X137150000Y-144500000D01*
X142700000Y-141700000D02*
X140650000Y-143750000D01*
%TO.N,Net-(C3-Pad1)*%
X128300000Y-140350000D02*
X135400000Y-140350000D01*
X127200000Y-141450000D02*
X128300000Y-140350000D01*
X103250000Y-140950000D02*
X103650000Y-141350000D01*
X103650000Y-141350000D02*
X125350000Y-141350000D01*
X103250000Y-139200000D02*
X103250000Y-140950000D01*
%TO.N,Net-(D3-A)*%
X104600000Y-142650000D02*
X102750000Y-144500000D01*
X101580000Y-146930000D02*
X100350000Y-146930000D01*
X102750000Y-144500000D02*
X102750000Y-146100000D01*
X102750000Y-146100000D02*
X101750000Y-147100000D01*
X101750000Y-147100000D02*
X101580000Y-146930000D01*
X100350000Y-138600000D02*
X101300000Y-137650000D01*
X100350000Y-146930000D02*
X100350000Y-138600000D01*
X124400000Y-142650000D02*
X104600000Y-142650000D01*
%TO.N,Net-(Q1-Pad2)*%
X134650000Y-141950000D02*
X134300000Y-141600000D01*
X135600000Y-143650000D02*
X135600000Y-141950000D01*
X135600000Y-141950000D02*
X134650000Y-141950000D01*
%TO.N,Net-(U1B--)*%
X126050000Y-144650000D02*
X110250000Y-144650000D01*
X129160000Y-138550000D02*
X127650000Y-138550000D01*
X126350000Y-139850000D02*
X126350000Y-144350000D01*
X109410000Y-145490000D02*
X109410000Y-146380000D01*
X127650000Y-138550000D02*
X126350000Y-139850000D01*
X110250000Y-144650000D02*
X109410000Y-145490000D01*
X126350000Y-144350000D02*
X126050000Y-144650000D01*
%TD*%
M02*
