%TF.GenerationSoftware,KiCad,Pcbnew,9.0.7*%
%TF.CreationDate,2026-01-18T12:08:03+01:00*%
%TF.ProjectId,Generator,47656e65-7261-4746-9f72-2e6b69636164,rev?*%
%TF.SameCoordinates,Original*%
%TF.FileFunction,Legend,Top*%
%TF.FilePolarity,Positive*%
%FSLAX46Y46*%
G04 Gerber Fmt 4.6, Leading zero omitted, Abs format (unit mm)*
G04 Created by KiCad (PCBNEW 9.0.7) date 2026-01-18 12:08:03*
%MOMM*%
%LPD*%
G01*
G04 APERTURE LIST*
%ADD10C,0.150000*%
%ADD11C,0.120000*%
%ADD12C,0.127000*%
%ADD13C,0.200000*%
G04 APERTURE END LIST*
D10*
X58665180Y-145258095D02*
X57855657Y-145258095D01*
X57855657Y-145258095D02*
X57760419Y-145305714D01*
X57760419Y-145305714D02*
X57712800Y-145353333D01*
X57712800Y-145353333D02*
X57665180Y-145448571D01*
X57665180Y-145448571D02*
X57665180Y-145639047D01*
X57665180Y-145639047D02*
X57712800Y-145734285D01*
X57712800Y-145734285D02*
X57760419Y-145781904D01*
X57760419Y-145781904D02*
X57855657Y-145829523D01*
X57855657Y-145829523D02*
X58665180Y-145829523D01*
X57712800Y-146258095D02*
X57665180Y-146400952D01*
X57665180Y-146400952D02*
X57665180Y-146639047D01*
X57665180Y-146639047D02*
X57712800Y-146734285D01*
X57712800Y-146734285D02*
X57760419Y-146781904D01*
X57760419Y-146781904D02*
X57855657Y-146829523D01*
X57855657Y-146829523D02*
X57950895Y-146829523D01*
X57950895Y-146829523D02*
X58046133Y-146781904D01*
X58046133Y-146781904D02*
X58093752Y-146734285D01*
X58093752Y-146734285D02*
X58141371Y-146639047D01*
X58141371Y-146639047D02*
X58188990Y-146448571D01*
X58188990Y-146448571D02*
X58236609Y-146353333D01*
X58236609Y-146353333D02*
X58284228Y-146305714D01*
X58284228Y-146305714D02*
X58379466Y-146258095D01*
X58379466Y-146258095D02*
X58474704Y-146258095D01*
X58474704Y-146258095D02*
X58569942Y-146305714D01*
X58569942Y-146305714D02*
X58617561Y-146353333D01*
X58617561Y-146353333D02*
X58665180Y-146448571D01*
X58665180Y-146448571D02*
X58665180Y-146686666D01*
X58665180Y-146686666D02*
X58617561Y-146829523D01*
X58188990Y-147591428D02*
X58141371Y-147734285D01*
X58141371Y-147734285D02*
X58093752Y-147781904D01*
X58093752Y-147781904D02*
X57998514Y-147829523D01*
X57998514Y-147829523D02*
X57855657Y-147829523D01*
X57855657Y-147829523D02*
X57760419Y-147781904D01*
X57760419Y-147781904D02*
X57712800Y-147734285D01*
X57712800Y-147734285D02*
X57665180Y-147639047D01*
X57665180Y-147639047D02*
X57665180Y-147258095D01*
X57665180Y-147258095D02*
X58665180Y-147258095D01*
X58665180Y-147258095D02*
X58665180Y-147591428D01*
X58665180Y-147591428D02*
X58617561Y-147686666D01*
X58617561Y-147686666D02*
X58569942Y-147734285D01*
X58569942Y-147734285D02*
X58474704Y-147781904D01*
X58474704Y-147781904D02*
X58379466Y-147781904D01*
X58379466Y-147781904D02*
X58284228Y-147734285D01*
X58284228Y-147734285D02*
X58236609Y-147686666D01*
X58236609Y-147686666D02*
X58188990Y-147591428D01*
X58188990Y-147591428D02*
X58188990Y-147258095D01*
X140200057Y-147945238D02*
X140152438Y-148040476D01*
X140152438Y-148040476D02*
X140057200Y-148135714D01*
X140057200Y-148135714D02*
X139914342Y-148278571D01*
X139914342Y-148278571D02*
X139866723Y-148373809D01*
X139866723Y-148373809D02*
X139866723Y-148469047D01*
X140104819Y-148421428D02*
X140057200Y-148516666D01*
X140057200Y-148516666D02*
X139961961Y-148611904D01*
X139961961Y-148611904D02*
X139771485Y-148659523D01*
X139771485Y-148659523D02*
X139438152Y-148659523D01*
X139438152Y-148659523D02*
X139247676Y-148611904D01*
X139247676Y-148611904D02*
X139152438Y-148516666D01*
X139152438Y-148516666D02*
X139104819Y-148421428D01*
X139104819Y-148421428D02*
X139104819Y-148230952D01*
X139104819Y-148230952D02*
X139152438Y-148135714D01*
X139152438Y-148135714D02*
X139247676Y-148040476D01*
X139247676Y-148040476D02*
X139438152Y-147992857D01*
X139438152Y-147992857D02*
X139771485Y-147992857D01*
X139771485Y-147992857D02*
X139961961Y-148040476D01*
X139961961Y-148040476D02*
X140057200Y-148135714D01*
X140057200Y-148135714D02*
X140104819Y-148230952D01*
X140104819Y-148230952D02*
X140104819Y-148421428D01*
X140104819Y-147040476D02*
X140104819Y-147611904D01*
X140104819Y-147326190D02*
X139104819Y-147326190D01*
X139104819Y-147326190D02*
X139247676Y-147421428D01*
X139247676Y-147421428D02*
X139342914Y-147516666D01*
X139342914Y-147516666D02*
X139390533Y-147611904D01*
X98954819Y-147111904D02*
X97954819Y-147111904D01*
X98954819Y-146540476D02*
X98383390Y-146969047D01*
X97954819Y-146540476D02*
X98526247Y-147111904D01*
D11*
%TO.C,A1*%
X51640000Y-142580000D02*
X62060000Y-142580000D01*
X51640000Y-150460000D02*
X51640000Y-142580000D01*
X54180000Y-137500000D02*
X54180000Y-142580000D01*
X54180000Y-155540000D02*
X54180000Y-150460000D01*
X54180000Y-155540000D02*
X97620000Y-155540000D01*
X56850000Y-140170000D02*
X56850000Y-137500000D01*
X56850000Y-152870000D02*
X56850000Y-155540000D01*
X62060000Y-142580000D02*
X62060000Y-150460000D01*
X62060000Y-150460000D02*
X51640000Y-150460000D01*
X92410000Y-137500000D02*
X54180000Y-137500000D01*
X92410000Y-140170000D02*
X56850000Y-140170000D01*
X92410000Y-140170000D02*
X92410000Y-137500000D01*
X92410000Y-140170000D02*
X94950000Y-140170000D01*
X94950000Y-140170000D02*
X94950000Y-137500000D01*
X94950000Y-152870000D02*
X56850000Y-152870000D01*
X94950000Y-152870000D02*
X94950000Y-155540000D01*
X97620000Y-137500000D02*
X94950000Y-137500000D01*
X97620000Y-155540000D02*
X97620000Y-137500000D01*
%TO.C,R2*%
X133680000Y-140680000D02*
X129840000Y-140680000D01*
X133680000Y-142520000D02*
X129840000Y-142520000D01*
%TO.C,D2*%
X120520000Y-145014000D02*
X120520000Y-145170000D01*
X120520000Y-147330000D02*
X120520000Y-147486000D01*
X120520000Y-145014484D02*
G75*
G02*
X123751437Y-145170000I1560000J-1235516D01*
G01*
X121039039Y-145170000D02*
G75*
G02*
X123120961Y-145170000I1040961J-1080000D01*
G01*
X123120961Y-147330000D02*
G75*
G02*
X121039039Y-147330000I-1040961J1080000D01*
G01*
X123751437Y-147330000D02*
G75*
G02*
X120520000Y-147485516I-1671437J1080000D01*
G01*
%TO.C,R5*%
X129940000Y-146680000D02*
X133780000Y-146680000D01*
X129940000Y-148520000D02*
X133780000Y-148520000D01*
%TO.C,R8*%
X133870000Y-152730000D02*
X130030000Y-152730000D01*
X133870000Y-154570000D02*
X130030000Y-154570000D01*
%TO.C,R3*%
X142080000Y-140780000D02*
X138240000Y-140780000D01*
X142080000Y-142620000D02*
X138240000Y-142620000D01*
%TO.C,C1*%
X112930199Y-138255000D02*
X113330199Y-138255000D01*
X113130199Y-138055000D02*
X113130199Y-138455000D01*
X115200000Y-137370000D02*
X115200000Y-138610000D01*
X115200000Y-140290000D02*
X115200000Y-141530000D01*
X115240000Y-137370000D02*
X115240000Y-138610000D01*
X115240000Y-140290000D02*
X115240000Y-141530000D01*
X115280000Y-137372000D02*
X115280000Y-138610000D01*
X115280000Y-140290000D02*
X115280000Y-141528000D01*
X115320000Y-137373000D02*
X115320000Y-138610000D01*
X115320000Y-140290000D02*
X115320000Y-141527000D01*
X115360000Y-137376000D02*
X115360000Y-138610000D01*
X115360000Y-140290000D02*
X115360000Y-141524000D01*
X115400000Y-137379000D02*
X115400000Y-138610000D01*
X115400000Y-140290000D02*
X115400000Y-141521000D01*
X115440000Y-137384000D02*
X115440000Y-138610000D01*
X115440000Y-140290000D02*
X115440000Y-141516000D01*
X115480000Y-137389000D02*
X115480000Y-138610000D01*
X115480000Y-140290000D02*
X115480000Y-141511000D01*
X115520000Y-137394000D02*
X115520000Y-138610000D01*
X115520000Y-140290000D02*
X115520000Y-141506000D01*
X115560000Y-137401000D02*
X115560000Y-138610000D01*
X115560000Y-140290000D02*
X115560000Y-141499000D01*
X115600000Y-137408000D02*
X115600000Y-138610000D01*
X115600000Y-140290000D02*
X115600000Y-141492000D01*
X115640000Y-137416000D02*
X115640000Y-138610000D01*
X115640000Y-140290000D02*
X115640000Y-141484000D01*
X115680000Y-137425000D02*
X115680000Y-138610000D01*
X115680000Y-140290000D02*
X115680000Y-141475000D01*
X115720000Y-137435000D02*
X115720000Y-138610000D01*
X115720000Y-140290000D02*
X115720000Y-141465000D01*
X115760000Y-137445000D02*
X115760000Y-138610000D01*
X115760000Y-140290000D02*
X115760000Y-141455000D01*
X115800000Y-137457000D02*
X115800000Y-138610000D01*
X115800000Y-140290000D02*
X115800000Y-141443000D01*
X115840000Y-137469000D02*
X115840000Y-138610000D01*
X115840000Y-140290000D02*
X115840000Y-141431000D01*
X115880000Y-137482000D02*
X115880000Y-138610000D01*
X115880000Y-140290000D02*
X115880000Y-141418000D01*
X115920000Y-137496000D02*
X115920000Y-138610000D01*
X115920000Y-140290000D02*
X115920000Y-141404000D01*
X115960000Y-137511000D02*
X115960000Y-138610000D01*
X115960000Y-140290000D02*
X115960000Y-141389000D01*
X116000000Y-137527000D02*
X116000000Y-138610000D01*
X116000000Y-140290000D02*
X116000000Y-141373000D01*
X116040000Y-137544000D02*
X116040000Y-138610000D01*
X116040000Y-140290000D02*
X116040000Y-141356000D01*
X116080000Y-137561000D02*
X116080000Y-138610000D01*
X116080000Y-140290000D02*
X116080000Y-141339000D01*
X116120000Y-137580000D02*
X116120000Y-138610000D01*
X116120000Y-140290000D02*
X116120000Y-141320000D01*
X116160000Y-137600000D02*
X116160000Y-138610000D01*
X116160000Y-140290000D02*
X116160000Y-141300000D01*
X116200000Y-137621000D02*
X116200000Y-138610000D01*
X116200000Y-140290000D02*
X116200000Y-141279000D01*
X116240000Y-137643000D02*
X116240000Y-138610000D01*
X116240000Y-140290000D02*
X116240000Y-141257000D01*
X116280000Y-137666000D02*
X116280000Y-138610000D01*
X116280000Y-140290000D02*
X116280000Y-141234000D01*
X116320000Y-137690000D02*
X116320000Y-138610000D01*
X116320000Y-140290000D02*
X116320000Y-141210000D01*
X116360000Y-137716000D02*
X116360000Y-138610000D01*
X116360000Y-140290000D02*
X116360000Y-141184000D01*
X116400000Y-137742000D02*
X116400000Y-138610000D01*
X116400000Y-140290000D02*
X116400000Y-141158000D01*
X116440000Y-137770000D02*
X116440000Y-138610000D01*
X116440000Y-140290000D02*
X116440000Y-141130000D01*
X116480000Y-137800000D02*
X116480000Y-138610000D01*
X116480000Y-140290000D02*
X116480000Y-141100000D01*
X116520000Y-137831000D02*
X116520000Y-138610000D01*
X116520000Y-140290000D02*
X116520000Y-141069000D01*
X116560000Y-137864000D02*
X116560000Y-138610000D01*
X116560000Y-140290000D02*
X116560000Y-141036000D01*
X116600000Y-137898000D02*
X116600000Y-138610000D01*
X116600000Y-140290000D02*
X116600000Y-141002000D01*
X116640000Y-137934000D02*
X116640000Y-138610000D01*
X116640000Y-140290000D02*
X116640000Y-140966000D01*
X116680000Y-137972000D02*
X116680000Y-138610000D01*
X116680000Y-140290000D02*
X116680000Y-140928000D01*
X116720000Y-138012000D02*
X116720000Y-138610000D01*
X116720000Y-140290000D02*
X116720000Y-140888000D01*
X116760000Y-138054000D02*
X116760000Y-138610000D01*
X116760000Y-140290000D02*
X116760000Y-140846000D01*
X116800000Y-138099000D02*
X116800000Y-140801000D01*
X116840000Y-138147000D02*
X116840000Y-140753000D01*
X116880000Y-138197000D02*
X116880000Y-140703000D01*
X116920000Y-138251000D02*
X116920000Y-140649000D01*
X116960000Y-138308000D02*
X116960000Y-140592000D01*
X117000000Y-138370000D02*
X117000000Y-140530000D01*
X117040000Y-138437000D02*
X117040000Y-140463000D01*
X117080000Y-138510000D02*
X117080000Y-140390000D01*
X117120000Y-138591000D02*
X117120000Y-140309000D01*
X117160000Y-138682000D02*
X117160000Y-140218000D01*
X117200000Y-138787000D02*
X117200000Y-140113000D01*
X117240000Y-138913000D02*
X117240000Y-139987000D01*
X117280000Y-139080000D02*
X117280000Y-139820000D01*
X117320000Y-139450000D02*
G75*
G02*
X113080000Y-139450000I-2120000J0D01*
G01*
X113080000Y-139450000D02*
G75*
G02*
X117320000Y-139450000I2120000J0D01*
G01*
%TO.C,R6*%
X133830000Y-149630000D02*
X129990000Y-149630000D01*
X133830000Y-151470000D02*
X129990000Y-151470000D01*
%TO.C,R7*%
X142080000Y-137630000D02*
X138240000Y-137630000D01*
X142080000Y-139470000D02*
X138240000Y-139470000D01*
%TO.C,D1*%
X120520000Y-138264000D02*
X120520000Y-138420000D01*
X120520000Y-140580000D02*
X120520000Y-140736000D01*
X120520000Y-138264484D02*
G75*
G02*
X123751437Y-138420000I1560000J-1235516D01*
G01*
X121039039Y-138420000D02*
G75*
G02*
X123120961Y-138420000I1040961J-1080000D01*
G01*
X123120961Y-140580000D02*
G75*
G02*
X121039039Y-140580000I-1040961J1080000D01*
G01*
X123751437Y-140580000D02*
G75*
G02*
X120520000Y-140735516I-1671437J1080000D01*
G01*
%TO.C,U1*%
X103000000Y-147540000D02*
X103000000Y-149190000D01*
X103000000Y-151190000D02*
X103000000Y-152840000D01*
X103000000Y-152840000D02*
X113280000Y-152840000D01*
X113280000Y-147540000D02*
X103000000Y-147540000D01*
X113280000Y-152840000D02*
X113280000Y-147540000D01*
X102940000Y-155330000D02*
X113340000Y-155330000D01*
X113340000Y-145050000D01*
X102940000Y-145050000D01*
X102940000Y-155330000D01*
X103000000Y-149190000D02*
G75*
G02*
X103000000Y-151190000I0J-1000000D01*
G01*
%TO.C,C3*%
X101730199Y-138005000D02*
X102130199Y-138005000D01*
X101930199Y-137805000D02*
X101930199Y-138205000D01*
X104000000Y-137120000D02*
X104000000Y-138360000D01*
X104000000Y-140040000D02*
X104000000Y-141280000D01*
X104040000Y-137120000D02*
X104040000Y-138360000D01*
X104040000Y-140040000D02*
X104040000Y-141280000D01*
X104080000Y-137122000D02*
X104080000Y-138360000D01*
X104080000Y-140040000D02*
X104080000Y-141278000D01*
X104120000Y-137123000D02*
X104120000Y-138360000D01*
X104120000Y-140040000D02*
X104120000Y-141277000D01*
X104160000Y-137126000D02*
X104160000Y-138360000D01*
X104160000Y-140040000D02*
X104160000Y-141274000D01*
X104200000Y-137129000D02*
X104200000Y-138360000D01*
X104200000Y-140040000D02*
X104200000Y-141271000D01*
X104240000Y-137134000D02*
X104240000Y-138360000D01*
X104240000Y-140040000D02*
X104240000Y-141266000D01*
X104280000Y-137139000D02*
X104280000Y-138360000D01*
X104280000Y-140040000D02*
X104280000Y-141261000D01*
X104320000Y-137144000D02*
X104320000Y-138360000D01*
X104320000Y-140040000D02*
X104320000Y-141256000D01*
X104360000Y-137151000D02*
X104360000Y-138360000D01*
X104360000Y-140040000D02*
X104360000Y-141249000D01*
X104400000Y-137158000D02*
X104400000Y-138360000D01*
X104400000Y-140040000D02*
X104400000Y-141242000D01*
X104440000Y-137166000D02*
X104440000Y-138360000D01*
X104440000Y-140040000D02*
X104440000Y-141234000D01*
X104480000Y-137175000D02*
X104480000Y-138360000D01*
X104480000Y-140040000D02*
X104480000Y-141225000D01*
X104520000Y-137185000D02*
X104520000Y-138360000D01*
X104520000Y-140040000D02*
X104520000Y-141215000D01*
X104560000Y-137195000D02*
X104560000Y-138360000D01*
X104560000Y-140040000D02*
X104560000Y-141205000D01*
X104600000Y-137207000D02*
X104600000Y-138360000D01*
X104600000Y-140040000D02*
X104600000Y-141193000D01*
X104640000Y-137219000D02*
X104640000Y-138360000D01*
X104640000Y-140040000D02*
X104640000Y-141181000D01*
X104680000Y-137232000D02*
X104680000Y-138360000D01*
X104680000Y-140040000D02*
X104680000Y-141168000D01*
X104720000Y-137246000D02*
X104720000Y-138360000D01*
X104720000Y-140040000D02*
X104720000Y-141154000D01*
X104760000Y-137261000D02*
X104760000Y-138360000D01*
X104760000Y-140040000D02*
X104760000Y-141139000D01*
X104800000Y-137277000D02*
X104800000Y-138360000D01*
X104800000Y-140040000D02*
X104800000Y-141123000D01*
X104840000Y-137294000D02*
X104840000Y-138360000D01*
X104840000Y-140040000D02*
X104840000Y-141106000D01*
X104880000Y-137311000D02*
X104880000Y-138360000D01*
X104880000Y-140040000D02*
X104880000Y-141089000D01*
X104920000Y-137330000D02*
X104920000Y-138360000D01*
X104920000Y-140040000D02*
X104920000Y-141070000D01*
X104960000Y-137350000D02*
X104960000Y-138360000D01*
X104960000Y-140040000D02*
X104960000Y-141050000D01*
X105000000Y-137371000D02*
X105000000Y-138360000D01*
X105000000Y-140040000D02*
X105000000Y-141029000D01*
X105040000Y-137393000D02*
X105040000Y-138360000D01*
X105040000Y-140040000D02*
X105040000Y-141007000D01*
X105080000Y-137416000D02*
X105080000Y-138360000D01*
X105080000Y-140040000D02*
X105080000Y-140984000D01*
X105120000Y-137440000D02*
X105120000Y-138360000D01*
X105120000Y-140040000D02*
X105120000Y-140960000D01*
X105160000Y-137466000D02*
X105160000Y-138360000D01*
X105160000Y-140040000D02*
X105160000Y-140934000D01*
X105200000Y-137492000D02*
X105200000Y-138360000D01*
X105200000Y-140040000D02*
X105200000Y-140908000D01*
X105240000Y-137520000D02*
X105240000Y-138360000D01*
X105240000Y-140040000D02*
X105240000Y-140880000D01*
X105280000Y-137550000D02*
X105280000Y-138360000D01*
X105280000Y-140040000D02*
X105280000Y-140850000D01*
X105320000Y-137581000D02*
X105320000Y-138360000D01*
X105320000Y-140040000D02*
X105320000Y-140819000D01*
X105360000Y-137614000D02*
X105360000Y-138360000D01*
X105360000Y-140040000D02*
X105360000Y-140786000D01*
X105400000Y-137648000D02*
X105400000Y-138360000D01*
X105400000Y-140040000D02*
X105400000Y-140752000D01*
X105440000Y-137684000D02*
X105440000Y-138360000D01*
X105440000Y-140040000D02*
X105440000Y-140716000D01*
X105480000Y-137722000D02*
X105480000Y-138360000D01*
X105480000Y-140040000D02*
X105480000Y-140678000D01*
X105520000Y-137762000D02*
X105520000Y-138360000D01*
X105520000Y-140040000D02*
X105520000Y-140638000D01*
X105560000Y-137804000D02*
X105560000Y-138360000D01*
X105560000Y-140040000D02*
X105560000Y-140596000D01*
X105600000Y-137849000D02*
X105600000Y-140551000D01*
X105640000Y-137897000D02*
X105640000Y-140503000D01*
X105680000Y-137947000D02*
X105680000Y-140453000D01*
X105720000Y-138001000D02*
X105720000Y-140399000D01*
X105760000Y-138058000D02*
X105760000Y-140342000D01*
X105800000Y-138120000D02*
X105800000Y-140280000D01*
X105840000Y-138187000D02*
X105840000Y-140213000D01*
X105880000Y-138260000D02*
X105880000Y-140140000D01*
X105920000Y-138341000D02*
X105920000Y-140059000D01*
X105960000Y-138432000D02*
X105960000Y-139968000D01*
X106000000Y-138537000D02*
X106000000Y-139863000D01*
X106040000Y-138663000D02*
X106040000Y-139737000D01*
X106080000Y-138830000D02*
X106080000Y-139570000D01*
X106120000Y-139200000D02*
G75*
G02*
X101880000Y-139200000I-2120000J0D01*
G01*
X101880000Y-139200000D02*
G75*
G02*
X106120000Y-139200000I2120000J0D01*
G01*
%TO.C,R4*%
X129840000Y-143680000D02*
X133680000Y-143680000D01*
X129840000Y-145520000D02*
X133680000Y-145520000D01*
%TO.C,SW1*%
X119100000Y-152110000D02*
X119100000Y-151650000D01*
X119100000Y-155350000D02*
X119100000Y-154890000D01*
X119100000Y-155350000D02*
X125300000Y-155350000D01*
X125300000Y-151650000D02*
X119100000Y-151650000D01*
X125300000Y-152110000D02*
X125300000Y-151650000D01*
X125300000Y-154890000D02*
X126300000Y-154890000D01*
X125300000Y-155350000D02*
X125300000Y-154890000D01*
X123700000Y-154050000D02*
X120850000Y-154050000D01*
X120850000Y-153000000D01*
X123700000Y-153000000D01*
X123700000Y-154050000D01*
D12*
%TO.C,Q1*%
X138732500Y-146760000D02*
X142927500Y-146760000D01*
X138732500Y-156920000D02*
X138732500Y-146760000D01*
X142927500Y-146760000D02*
X142927500Y-156920000D01*
X142927500Y-156920000D02*
X138732500Y-156920000D01*
D13*
X141550000Y-157670000D02*
G75*
G02*
X141350000Y-157670000I-100000J0D01*
G01*
X141350000Y-157670000D02*
G75*
G02*
X141550000Y-157670000I100000J0D01*
G01*
D11*
%TO.C,R1*%
X133620000Y-137630000D02*
X129780000Y-137630000D01*
X133620000Y-139470000D02*
X129780000Y-139470000D01*
%TO.C,C2*%
X107230199Y-138105000D02*
X107630199Y-138105000D01*
X107430199Y-137905000D02*
X107430199Y-138305000D01*
X109500000Y-137220000D02*
X109500000Y-138460000D01*
X109500000Y-140140000D02*
X109500000Y-141380000D01*
X109540000Y-137220000D02*
X109540000Y-138460000D01*
X109540000Y-140140000D02*
X109540000Y-141380000D01*
X109580000Y-137222000D02*
X109580000Y-138460000D01*
X109580000Y-140140000D02*
X109580000Y-141378000D01*
X109620000Y-137223000D02*
X109620000Y-138460000D01*
X109620000Y-140140000D02*
X109620000Y-141377000D01*
X109660000Y-137226000D02*
X109660000Y-138460000D01*
X109660000Y-140140000D02*
X109660000Y-141374000D01*
X109700000Y-137229000D02*
X109700000Y-138460000D01*
X109700000Y-140140000D02*
X109700000Y-141371000D01*
X109740000Y-137234000D02*
X109740000Y-138460000D01*
X109740000Y-140140000D02*
X109740000Y-141366000D01*
X109780000Y-137239000D02*
X109780000Y-138460000D01*
X109780000Y-140140000D02*
X109780000Y-141361000D01*
X109820000Y-137244000D02*
X109820000Y-138460000D01*
X109820000Y-140140000D02*
X109820000Y-141356000D01*
X109860000Y-137251000D02*
X109860000Y-138460000D01*
X109860000Y-140140000D02*
X109860000Y-141349000D01*
X109900000Y-137258000D02*
X109900000Y-138460000D01*
X109900000Y-140140000D02*
X109900000Y-141342000D01*
X109940000Y-137266000D02*
X109940000Y-138460000D01*
X109940000Y-140140000D02*
X109940000Y-141334000D01*
X109980000Y-137275000D02*
X109980000Y-138460000D01*
X109980000Y-140140000D02*
X109980000Y-141325000D01*
X110020000Y-137285000D02*
X110020000Y-138460000D01*
X110020000Y-140140000D02*
X110020000Y-141315000D01*
X110060000Y-137295000D02*
X110060000Y-138460000D01*
X110060000Y-140140000D02*
X110060000Y-141305000D01*
X110100000Y-137307000D02*
X110100000Y-138460000D01*
X110100000Y-140140000D02*
X110100000Y-141293000D01*
X110140000Y-137319000D02*
X110140000Y-138460000D01*
X110140000Y-140140000D02*
X110140000Y-141281000D01*
X110180000Y-137332000D02*
X110180000Y-138460000D01*
X110180000Y-140140000D02*
X110180000Y-141268000D01*
X110220000Y-137346000D02*
X110220000Y-138460000D01*
X110220000Y-140140000D02*
X110220000Y-141254000D01*
X110260000Y-137361000D02*
X110260000Y-138460000D01*
X110260000Y-140140000D02*
X110260000Y-141239000D01*
X110300000Y-137377000D02*
X110300000Y-138460000D01*
X110300000Y-140140000D02*
X110300000Y-141223000D01*
X110340000Y-137394000D02*
X110340000Y-138460000D01*
X110340000Y-140140000D02*
X110340000Y-141206000D01*
X110380000Y-137411000D02*
X110380000Y-138460000D01*
X110380000Y-140140000D02*
X110380000Y-141189000D01*
X110420000Y-137430000D02*
X110420000Y-138460000D01*
X110420000Y-140140000D02*
X110420000Y-141170000D01*
X110460000Y-137450000D02*
X110460000Y-138460000D01*
X110460000Y-140140000D02*
X110460000Y-141150000D01*
X110500000Y-137471000D02*
X110500000Y-138460000D01*
X110500000Y-140140000D02*
X110500000Y-141129000D01*
X110540000Y-137493000D02*
X110540000Y-138460000D01*
X110540000Y-140140000D02*
X110540000Y-141107000D01*
X110580000Y-137516000D02*
X110580000Y-138460000D01*
X110580000Y-140140000D02*
X110580000Y-141084000D01*
X110620000Y-137540000D02*
X110620000Y-138460000D01*
X110620000Y-140140000D02*
X110620000Y-141060000D01*
X110660000Y-137566000D02*
X110660000Y-138460000D01*
X110660000Y-140140000D02*
X110660000Y-141034000D01*
X110700000Y-137592000D02*
X110700000Y-138460000D01*
X110700000Y-140140000D02*
X110700000Y-141008000D01*
X110740000Y-137620000D02*
X110740000Y-138460000D01*
X110740000Y-140140000D02*
X110740000Y-140980000D01*
X110780000Y-137650000D02*
X110780000Y-138460000D01*
X110780000Y-140140000D02*
X110780000Y-140950000D01*
X110820000Y-137681000D02*
X110820000Y-138460000D01*
X110820000Y-140140000D02*
X110820000Y-140919000D01*
X110860000Y-137714000D02*
X110860000Y-138460000D01*
X110860000Y-140140000D02*
X110860000Y-140886000D01*
X110900000Y-137748000D02*
X110900000Y-138460000D01*
X110900000Y-140140000D02*
X110900000Y-140852000D01*
X110940000Y-137784000D02*
X110940000Y-138460000D01*
X110940000Y-140140000D02*
X110940000Y-140816000D01*
X110980000Y-137822000D02*
X110980000Y-138460000D01*
X110980000Y-140140000D02*
X110980000Y-140778000D01*
X111020000Y-137862000D02*
X111020000Y-138460000D01*
X111020000Y-140140000D02*
X111020000Y-140738000D01*
X111060000Y-137904000D02*
X111060000Y-138460000D01*
X111060000Y-140140000D02*
X111060000Y-140696000D01*
X111100000Y-137949000D02*
X111100000Y-140651000D01*
X111140000Y-137997000D02*
X111140000Y-140603000D01*
X111180000Y-138047000D02*
X111180000Y-140553000D01*
X111220000Y-138101000D02*
X111220000Y-140499000D01*
X111260000Y-138158000D02*
X111260000Y-140442000D01*
X111300000Y-138220000D02*
X111300000Y-140380000D01*
X111340000Y-138287000D02*
X111340000Y-140313000D01*
X111380000Y-138360000D02*
X111380000Y-140240000D01*
X111420000Y-138441000D02*
X111420000Y-140159000D01*
X111460000Y-138532000D02*
X111460000Y-140068000D01*
X111500000Y-138637000D02*
X111500000Y-139963000D01*
X111540000Y-138763000D02*
X111540000Y-139837000D01*
X111580000Y-138930000D02*
X111580000Y-139670000D01*
X111620000Y-139300000D02*
G75*
G02*
X107380000Y-139300000I-2120000J0D01*
G01*
X107380000Y-139300000D02*
G75*
G02*
X111620000Y-139300000I2120000J0D01*
G01*
%TO.C,D3*%
X100350000Y-147970000D02*
X100350000Y-148620000D01*
X100350000Y-153510000D02*
X100350000Y-152860000D01*
X101470000Y-149220000D02*
X99230000Y-149220000D01*
X101470000Y-149340000D02*
X99230000Y-149340000D01*
X101470000Y-149460000D02*
X99230000Y-149460000D01*
X101470000Y-148620000D02*
X99230000Y-148620000D01*
X99230000Y-152860000D01*
X101470000Y-152860000D01*
X101470000Y-148620000D01*
%TD*%
M02*
